# xmcd
#
# Track frame offsets: 
#        150
#        27631
#        46953
#        68077
#        89069
#        110357
#        131403
#        155005
#        180795
#        203067
#        219499
#        238234
#
# Disc length: 3493 seconds
#
# Revision: 1
# Processed by: cddbd v1.5.2PL0 Copyright (c) Steve Scherf et al.
# Submitted via: ExactAudioCopyFreeDBPlugin 1.0
#
DISCID=a70da30c
DTITLE=江智民 - DTSES写给海洋
DYEAR=2009
DGENRE=DTSES
TTITLE0=掌声响起来
TTITLE1=不装饰你的梦
TTITLE2=风平浪静
TTITLE3=逝去的诺言
TTITLE4=告别时刻
TTITLE5=情锁
TTITLE6=为爱痴狂
TTITLE7=丁香花
TTITLE8=爱太任性
TTITLE9=我的幸福
TTITLE10=写给海洋
TTITLE11=让生命去等候
EXTD=
EXTT0=
EXTT1=
EXTT2=
EXTT3=
EXTT4=
EXTT5=
EXTT6=
EXTT7=
EXTT8=
EXTT9=
EXTT10=
EXTT11=
PLAYORDER=
